<?xml version="1.0" ?><svg style="enable-background:new 0 0 512 512;" version="1.1" viewBox="0 0 512 512" xml:space="preserve" xmlns="http://www.w3.org/2000/svg" xmlns:xlink="http://www.w3.org/1999/xlink"><style type="text/css">
	.st0{fill:#725912;}
	.st1{fill:#E5B922;}
	.st2{fill-rule:evenodd;clip-rule:evenodd;fill:#B28C1F;}
	.st3{fill-rule:evenodd;clip-rule:evenodd;fill:#010101;}
</style><g id="Edges"/><g id="Background_Bottom"><g><path class="st0" d="M492.3,443.1c0,34.2-27.7,61.9-61.9,61.9H80.7c-34.2,0-61.9-27.7-61.9-61.9V93.4c0-34.2,27.7-61.9,61.9-61.9    h349.7c34.2,0,61.9,27.7,61.9,61.9V443.1z"/></g></g><g id="Background"><path class="st1" d="M492.3,418.4c0,34.2-27.7,61.9-61.9,61.9H80.7c-34.2,0-61.9-27.7-61.9-61.9V68.6c0-34.2,27.7-61.9,61.9-61.9   h349.7c34.2,0,61.9,27.7,61.9,61.9V418.4z"/></g><g id="Shadow"><path class="st2" d="M376.3,188.7l-0.2,0.2v-0.2h-32.9v29.1L327,201.5c-0.6-1-1.4-2-2.2-2.9c-3-3.5-7.5-6-13.4-7.6   c-5.7-1.4-15.3-2.3-31.8-2.3H254v12.4l-11.7-11.7v-0.7h-44.6l-2,15.5l-14.8-14.8c0-0.2-0.1-0.4-0.1-0.7h-44.3v11.2l-11.2-11.2   l-0.4,0.4v-0.4H90.7V321h0.2C144,374,197.1,427.1,250.2,480.2c6.9,0,13.8,0,20.8,0.1h159.5c34.2,0,61.9-27.7,61.9-61.9l0-96.5   v-17.2L376.3,188.7z"/></g><g id="Symbol"><g><rect class="st3" height="132.3" width="34.2" x="89.7" y="188.7"/><path class="st3" d="M196.7,188.7l-7.9,61.9L184,217c-1.5-10.8-2.8-20.2-4.1-28.3h-44.3V321h30l0.1-87.3l12.5,87.3h21.3l12.1-89.3    V321h29.8V188.7H196.7z"/><path class="st3" d="M294.4,321c8.2,0,14.4-0.5,18.4-1.3c4.1-0.9,7.6-2.4,10.2-4.8c2.8-2.2,4.7-5.4,5.8-9.4    c1.1-4,1.8-11.9,1.8-23.8v-46.4c0-12.5-0.5-21-1.3-25.2c-0.7-4.3-2.6-8.2-5.6-11.6c-3-3.5-7.5-6-13.4-7.6    c-5.7-1.4-15.3-2.3-31.8-2.3H253V321H294.4z M294.8,212.6c1.3,0.7,2.2,1.9,2.5,3.7c0.5,1.7,0.6,5.6,0.6,11.6v51.3    c0,8.8-0.6,14.1-1.7,16.1c-1.1,2.1-4.1,3-9,3v-86.8C290.9,211.4,293.4,211.7,294.8,212.6z"/><path class="st3" d="M342.3,188.7V321h30.8l2.1-8.4c2.8,3.4,5.8,6,9.3,7.7c3.3,1.6,8.3,2.4,12.2,2.4c5.5,0,10.1-1.3,14-4.3    c3.9-2.8,6.4-6.2,7.5-10.1c1-3.9,1.6-9.8,1.6-17.7v-37.1c0-7.9-0.3-13.1-0.6-15.6c-0.4-2.4-1.3-5-3-7.5c-1.8-2.6-4.4-4.5-7.7-6    c-3.3-1.3-7.2-2.1-11.8-2.1c-3.9,0-8.9,0.9-12.3,2.3c-3.3,1.6-6.3,4-9.1,7.2v-43.1H342.3z M386.7,288.9c0,6.3-0.4,10.3-1,12    c-0.6,1.7-3.4,2.6-5.5,2.6c-2,0-3.4-0.9-4-2.4c-0.7-1.6-1.1-5.4-1.1-11.2v-35c0-6,0.4-9.7,1-11.2c0.6-1.4,2-2.2,3.9-2.2    c2.1,0,4.9,0.7,5.6,2.6c0.7,1.7,1.1,5.4,1.1,10.8V288.9z"/></g></g></svg>