<?xml version="1.0" standalone="no"?>
<!DOCTYPE svg PUBLIC "-//W3C//DTD SVG 20010904//EN"
 "http://www.w3.org/TR/2001/REC-SVG-20010904/DTD/svg10.dtd">
<svg version="1.0" xmlns="http://www.w3.org/2000/svg"
 width="379.000000pt" height="379.000000pt" viewBox="0 0 379.000000 379.000000"
 preserveAspectRatio="xMidYMid meet">
<metadata>
Created by potrace 1.11, written by Peter Selinger 2001-2013
</metadata>
<g transform="translate(0.000000,379.000000) scale(0.100000,-0.100000)"
fill="#000000" stroke="none">
<path d="M1611 3779 c-308 -39 -630 -179 -886 -383 -133 -106 -324 -313 -426
-461 -130 -188 -241 -461 -274 -675 -4 -25 -10 -54 -13 -65 -2 -11 -6 -130 -8
-265 -3 -251 4 -331 42 -495 46 -194 163 -455 269 -597 11 -15 43 -58 70 -95
73 -97 265 -287 375 -369 181 -136 323 -212 522 -278 74 -25 145 -47 158 -49
14 -3 59 -10 100 -17 41 -7 98 -16 125 -20 53 -9 443 -6 485 4 53 12 80 17
111 21 39 5 170 39 236 61 450 149 868 518 1087 961 88 176 150 373 172 543 3
25 8 56 11 70 9 44 11 353 2 425 -53 457 -224 818 -539 1134 -99 100 -254 229
-325 271 -22 13 -42 26 -45 29 -3 4 -23 16 -45 28 -22 11 -56 30 -75 40 -79
43 -249 111 -320 128 -108 26 -209 47 -260 54 -82 11 -464 11 -549 0z"/>
</g>
</svg>
