<?xml version="1.0" standalone="no"?>
<!DOCTYPE svg PUBLIC "-//W3C//DTD SVG 20010904//EN"
 "http://www.w3.org/TR/2001/REC-SVG-20010904/DTD/svg10.dtd">
<svg version="1.0" xmlns="http://www.w3.org/2000/svg"
 width="944.000000pt" height="944.000000pt" viewBox="0 0 944.000000 944.000000"
 preserveAspectRatio="xMidYMid meet">
<metadata>
Created by potrace 1.11, written by Peter Selinger 2001-2013
</metadata>
<g transform="translate(0.000000,944.000000) scale(0.100000,-0.100000)"
fill="#000000" stroke="none">
<path d="M4289 8216 c-4 -3 -54 -10 -159 -22 -84 -9 -275 -45 -395 -74 -295
-71 -630 -213 -924 -392 -101 -61 -339 -232 -396 -284 -11 -11 -50 -45 -87
-77 -65 -56 -248 -236 -319 -313 -339 -371 -591 -805 -740 -1274 -17 -52 -32
-102 -34 -110 -2 -8 -10 -42 -18 -75 -35 -137 -67 -321 -84 -485 -10 -98 -10
-727 0 -805 31 -233 35 -254 63 -385 52 -241 141 -493 259 -735 86 -174 101
-201 210 -370 166 -255 439 -565 678 -770 32 -28 64 -55 70 -60 18 -16 149
-119 173 -135 208 -145 356 -233 547 -325 294 -141 680 -254 992 -290 28 -3
64 -8 80 -10 175 -27 649 -27 835 0 14 2 52 6 85 10 251 26 665 140 915 252
183 82 482 253 580 330 8 6 51 38 95 71 173 130 376 315 527 479 57 63 225
274 258 325 14 21 28 38 33 38 4 0 7 4 7 9 0 6 19 38 43 73 106 154 225 379
300 563 41 101 86 230 87 247 1 4 8 27 16 50 40 113 104 405 120 548 3 30 7
66 10 80 33 209 23 706 -22 995 -36 233 -137 595 -214 770 -55 124 -139 292
-185 371 -53 91 -182 292 -195 304 -3 3 -25 32 -50 65 -125 168 -378 438 -539
575 -35 30 -69 60 -75 65 -28 26 -189 146 -261 196 -310 215 -692 387 -1060
479 -71 18 -139 34 -150 35 -11 2 -47 9 -80 15 -70 13 -89 16 -173 25 -35 4
-80 10 -100 13 -40 6 -717 13 -723 8z"/>
</g>
</svg>
